<?xml version="1.0" encoding="utf-8"?>
<!-- Generator: Adobe Illustrator 23.0.1, SVG Export Plug-In . SVG Version: 6.00 Build 0)  -->
<svg version="1.1" id="Layer_1" xmlns="http://www.w3.org/2000/svg" xmlns:xlink="http://www.w3.org/1999/xlink" x="0px" y="0px"
	 viewBox="0 0 16383 16383" style="enable-background:new 0 0 16383 16383;" xml:space="preserve">
<style type="text/css">
	.st0{fill:#FFFFFF;}
</style>
<circle cx="8691.31" cy="8388.83" r="4264.64"/>
<g>
	<path class="st0" d="M5654.63,6207.88c293.01-59.93,712.56-93.23,1112.11-93.23c619.32,0,1018.89,113.19,1298.58,366.27
		c226.42,199.78,352.96,506.09,352.96,852.4c0,592.69-372.94,985.59-845.75,1145.41v19.96
		c346.29,119.89,552.72,439.53,659.28,905.69c146.5,625.95,253.05,1058.82,346.29,1231.97h-599.35
		c-73.24-126.52-173.14-512.76-299.66-1072.15c-133.19-619.32-372.94-852.4-899.03-872.4H6234v1944.55h-579.37V6207.88z
		 M6234,8252.32h592.69c619.32,0,1012.22-339.64,1012.22-852.4c0-579.39-419.55-832.43-1032.2-839.1
		c-279.69,0-479.48,26.63-572.7,53.3V8252.32z"/>
	<path class="st0" d="M9157.48,9930.49c259.71,159.82,639.3,293.01,1038.87,293.01c592.67,0,938.96-313.01,938.96-765.84
		c0-419.53-239.73-659.28-845.73-892.36c-732.53-259.71-1185.37-639.28-1185.37-1271.93c0-699.24,579.37-1218.67,1451.75-1218.67
		c459.5,0,792.45,106.56,992.24,219.75l-159.82,472.83c-146.5-79.93-446.18-213.08-852.4-213.08
		c-612.67,0-845.73,366.24-845.73,672.58c0,419.53,273.03,625.98,892.35,865.73c759.17,293.01,1145.41,659.25,1145.41,1318.53
		c0,692.58-512.78,1291.93-1571.61,1291.93c-432.87,0-905.68-126.52-1145.41-286.34L9157.48,9930.49z"/>
</g>
</svg>
