<?xml version="1.0" encoding="utf-8"?>
<!-- Generator: Adobe Illustrator 23.0.1, SVG Export Plug-In . SVG Version: 6.00 Build 0)  -->
<svg version="1.1" id="Layer_1" xmlns="http://www.w3.org/2000/svg" xmlns:xlink="http://www.w3.org/1999/xlink" x="0px" y="0px"
	 viewBox="0 0 16383 16383" style="enable-background:new 0 0 16383 16383;" xml:space="preserve">
<style type="text/css">
	.st0{fill:#FFFFFF;}
</style>
<circle cx="8232.29" cy="7320.54" r="4264.62"/>
<g>
	<path class="st0" d="M5349.05,5026.88h593.02v4096.55h1963.07v497.58H5349.05V5026.88z"/>
	<path class="st0" d="M8484.46,8898.51c265.83,163.59,654.36,299.91,1063.34,299.91c606.63,0,961.08-320.38,961.08-783.88
		c0-429.41-245.38-674.81-865.65-913.38c-749.78-265.83-1213.29-654.34-1213.29-1301.89c0-715.71,593.02-1247.37,1485.95-1247.37
		c470.32,0,811.12,109.07,1015.61,224.93l-163.59,483.97c-149.96-81.81-456.69-218.1-872.48-218.1
		c-627.1,0-865.65,374.86-865.65,688.42c0,429.42,279.46,640.73,913.37,886.12c777.05,299.91,1172.39,674.78,1172.39,1349.59
		c0,708.89-524.85,1322.36-1608.63,1322.36c-443.06,0-927.01-129.5-1172.39-293.09L8484.46,8898.51z"/>
</g>
</svg>
