<?xml version="1.0" encoding="utf-8"?>
<!-- Generator: Adobe Illustrator 23.0.1, SVG Export Plug-In . SVG Version: 6.00 Build 0)  -->
<svg version="1.1" id="Layer_1" xmlns="http://www.w3.org/2000/svg" xmlns:xlink="http://www.w3.org/1999/xlink" x="0px" y="0px"
	 viewBox="0 0 16383 16383" style="enable-background:new 0 0 16383 16383;" xml:space="preserve">
<style type="text/css">
	.st0{fill:#FFFFFF;}
</style>
<circle cx="8709.71" cy="7273.24" r="3984.67"/>
<g>
	<path class="st0" d="M7228.65,4736.34c293.47-61.77,756.81-108.11,1227.91-108.11c671.86,0,1104.32,115.84,1428.67,378.41
		c270.3,200.8,432.48,509.71,432.48,919c0,501.98-332.08,942.15-880.39,1142.95v15.42c494.25,123.57,1073.44,532.86,1073.44,1305.14
		c0,447.91-177.61,787.7-440.17,1042.57c-362.97,332.06-949.88,486.52-1799.39,486.52c-463.35,0-818.6-30.88-1042.55-61.8V4736.34z
		 M7900.52,6867.79h610.09c710.47,0,1127.49-370.68,1127.49-872.66c0-610.09-463.35-849.5-1142.93-849.5
		c-308.91,0-486.54,23.19-594.65,46.34V6867.79z M7900.52,9362.19c131.28,23.19,324.35,30.92,563.75,30.92
		c695.05,0,1336.02-254.87,1336.02-1011.69c0-710.47-610.09-1003.92-1343.73-1003.92h-556.03V9362.19z"/>
</g>
</svg>
