<?xml version="1.0" encoding="utf-8"?>
<!-- Generator: Adobe Illustrator 23.0.1, SVG Export Plug-In . SVG Version: 6.00 Build 0)  -->
<svg version="1.1" id="Layer_1" xmlns="http://www.w3.org/2000/svg" xmlns:xlink="http://www.w3.org/1999/xlink" x="0px" y="0px"
	 viewBox="0 0 16383 16383" style="enable-background:new 0 0 16383 16383;" xml:space="preserve">
<style type="text/css">
	.st0{fill:#FFFFFF;}
</style>
<path d="M9585.8,2315.72c0,1988.44-479.97,3651.18-8639.41,3651.18l0-3651.19L9585.8,2315.72z"/>
<g>
	<path class="st0" d="M2889.97,2971.48c140.62-28.76,341.96-44.74,533.71-44.74c297.21,0,488.96,54.32,623.19,175.77
		c108.66,95.88,169.38,242.88,169.38,409.07c0,284.43-178.97,472.99-405.87,549.68v9.58c166.19,57.54,265.26,210.93,316.39,434.64
		c70.31,300.4,121.44,508.13,166.19,591.22h-287.63c-35.15-60.72-83.09-246.07-143.82-514.53
		c-63.91-297.21-178.97-409.07-431.44-418.67h-262.06v933.19h-278.04V2971.48z M3168.01,3952.61h284.43
		c297.22,0,485.77-162.99,485.77-409.07c0-278.05-201.34-399.49-495.36-402.69c-134.23,0-230.1,12.78-274.84,25.58V3952.61z"/>
	<path class="st0" d="M4609.34,2971.48c121.44-25.56,313.2-44.74,508.14-44.74c278.04,0,457.01,47.94,591.23,156.6
		c111.85,83.1,178.97,210.93,178.97,380.31c0,207.73-137.42,389.89-364.32,472.99v6.38c204.53,51.14,444.22,220.51,444.22,540.1
		c0,185.36-73.5,325.97-182.16,431.45c-150.21,137.42-393.09,201.33-744.63,201.33c-191.75,0-338.76-12.78-431.44-25.58V2971.48z
		 M4887.38,3853.53h252.47c294.02,0,466.6-153.4,466.6-361.13c0-252.47-191.75-351.55-472.99-351.55
		c-127.84,0-201.34,9.6-246.08,19.18V3853.53z M4887.38,4885.78c54.33,9.6,134.22,12.8,233.29,12.8
		c287.63,0,552.88-105.47,552.88-418.67c0-294.01-252.47-415.45-556.08-415.45h-230.1V4885.78z"/>
</g>
</svg>
