<?xml version="1.0" encoding="utf-8"?>
<!-- Generator: Adobe Illustrator 23.0.1, SVG Export Plug-In . SVG Version: 6.00 Build 0)  -->
<svg version="1.1" id="Layer_1" xmlns="http://www.w3.org/2000/svg" xmlns:xlink="http://www.w3.org/1999/xlink" x="0px" y="0px"
	 viewBox="0 0 16383 16383" style="enable-background:new 0 0 16383 16383;" xml:space="preserve">
<style type="text/css">
	.st0{fill:#FFFFFF;stroke:#000000;stroke-width:10;stroke-miterlimit:10;}
</style>
<g>
	<path d="M10715.01,13005.26c0-4721.78-252.55-8670.17-4545.86-8670.17l0,8670.17L10715.01,13005.26z"/>
	<path class="st0" d="M10550.26,12691.03c0-4379.52-234.24-8041.72-4216.36-8041.72v8041.73L10550.26,12691.03z"/>
</g>
<g>
	<path d="M6591.37,8719.1c157.78-31.45,383.68-48.92,598.83-48.92c333.48,0,548.63,59.4,699.24,192.22
		c121.92,104.85,190.04,265.6,190.04,447.33c0,311.04-200.8,517.23-455.4,601.11v10.48c186.46,62.92,297.62,230.67,355,475.31
		c78.89,328.5,136.26,555.66,186.46,646.53h-322.73c-39.44-66.4-93.23-269.09-161.36-562.66
		c-71.71-325.02-200.8-447.34-484.09-457.83h-294.04v1020.49h-311.97V8719.1z M6903.33,9792.01h319.14
		c333.48,0,545.05-178.24,545.05-447.34c0-304.06-225.91-436.86-555.81-440.36c-150.6,0-258.18,13.99-308.38,27.97V9792.01z"/>
	<path d="M9011.77,8946.26h-735.1v-258.62H10066v258.62h-738.68v2096.88h-315.55V8946.26z"/>
</g>
</svg>
