<?xml version="1.0" encoding="utf-8"?>
<!-- Generator: Adobe Illustrator 23.0.1, SVG Export Plug-In . SVG Version: 6.00 Build 0)  -->
<svg version="1.1" id="Layer_1" xmlns="http://www.w3.org/2000/svg" xmlns:xlink="http://www.w3.org/1999/xlink" x="0px" y="0px"
	 viewBox="0 0 16383 16383" style="enable-background:new 0 0 16383 16383;" xml:space="preserve">
<style type="text/css">
	.st0{fill:#FFFFFF;}
</style>
<g>
	<circle cx="7441.45" cy="7518.23" r="4276.53"/>
	<circle class="st0" cx="7441.45" cy="7518.23" r="3984.45"/>
</g>
<g>
	<path d="M4803.99,5420.1h542.46v3747.34h1795.73v455.16H4803.99V5420.1z"/>
	<path d="M7672.12,8961.69c243.17,149.64,598.58,274.35,972.69,274.35c554.92,0,879.15-293.07,879.15-717.06
		c0-392.81-224.46-617.29-791.86-835.52c-685.86-243.17-1109.86-598.56-1109.86-1190.91c0-654.7,542.46-1141.04,1359.28-1141.04
		c430.23,0,741.97,99.77,929.03,205.75l-149.64,442.71c-137.17-74.84-417.76-199.51-798.1-199.51
		c-573.64,0-791.86,342.91-791.86,629.74c0,392.81,255.64,586.11,835.5,810.58c710.81,274.35,1072.45,617.25,1072.45,1234.54
		c0,648.46-480.11,1209.64-1471.5,1209.64c-405.29,0-847.99-118.46-1072.45-268.1L7672.12,8961.69z"/>
</g>
</svg>
