<?xml version="1.0" encoding="utf-8"?>
<!-- Generator: Adobe Illustrator 23.0.1, SVG Export Plug-In . SVG Version: 6.00 Build 0)  -->
<svg version="1.1" id="Layer_1" xmlns="http://www.w3.org/2000/svg" xmlns:xlink="http://www.w3.org/1999/xlink" x="0px" y="0px"
	 viewBox="0 0 16383 16383" style="enable-background:new 0 0 16383 16383;" xml:space="preserve">
<style type="text/css">
	.st0{fill:#FFFFFF;}
</style>
<g>
	<circle cx="8491.58" cy="7824.13" r="4277.08"/>
	<circle class="st0" cx="8491.58" cy="7824.13" r="3984.96"/>
</g>
<g>
	<path d="M5499.27,5675.06c288.73-59.05,702.15-91.86,1095.86-91.86c610.27,0,1004,111.54,1279.61,360.92
		c223.11,196.87,347.8,498.7,347.8,839.95c0,584.03-367.49,971.19-833.39,1128.67v19.67c341.23,118.14,544.65,433.11,649.65,892.46
		c144.36,616.81,249.35,1043.35,341.23,1213.97h-590.6c-72.17-124.67-170.61-505.27-295.28-1056.48
		c-131.24-610.27-367.49-839.94-885.89-859.65h-538.08v1916.13h-570.91V5675.06z M6070.17,7689.62h584.03
		c610.27,0,997.43-334.68,997.43-839.94c0-570.92-413.42-820.27-1017.12-826.84c-275.61,0-472.47,26.24-564.34,52.52V7689.62z"/>
	<path d="M8950.94,9343.27C9206.86,9500.76,9580.9,9632,9974.63,9632c584.01,0,925.24-308.43,925.24-754.65
		c0-413.4-236.23-649.65-833.38-879.32c-721.82-255.92-1168.05-629.94-1168.05-1253.35c0-689.03,570.91-1200.86,1430.54-1200.86
		c452.78,0,780.88,105,977.74,216.54l-157.49,465.92c-144.37-78.76-439.66-209.97-839.95-209.97
		c-603.72,0-833.38,360.89-833.38,662.75c0,413.4,269.04,616.84,879.31,853.08c748.08,288.73,1128.67,649.62,1128.67,1299.26
		c0,682.46-505.28,1273.05-1548.65,1273.05c-426.54,0-892.45-124.67-1128.67-282.16L8950.94,9343.27z"/>
</g>
</svg>
