<?xml version="1.0" encoding="utf-8"?>
<!-- Generator: Adobe Illustrator 23.0.1, SVG Export Plug-In . SVG Version: 6.00 Build 0)  -->
<svg version="1.1" id="Layer_1" xmlns="http://www.w3.org/2000/svg" xmlns:xlink="http://www.w3.org/1999/xlink" x="0px" y="0px"
	 viewBox="0 0 16383 16383" style="enable-background:new 0 0 16383 16383;" xml:space="preserve">
<style type="text/css">
	.st0{fill:#FFFFFF;stroke:#000000;stroke-width:10;stroke-miterlimit:10;}
</style>
<g>
	<path d="M4532.73,6242.45c0,1988.51,479.99,3651.32,8639.74,3651.32l0-3651.32L4532.73,6242.45z"/>
	<path class="st0" d="M4804.68,6357.37c0,1863.33,449.77,3421.47,8095.86,3421.47l0-3421.47L4804.68,6357.37z"/>
</g>
<g>
	<path d="M8275.39,6860.78h282.87v1954.06h936.39v237.34H8275.39V6860.78z"/>
	<path d="M9810,6890.04c123.55-26,318.63-45.52,516.96-45.52c282.87,0,464.94,48.77,601.5,159.32
		c113.79,84.54,182.07,214.6,182.07,386.91c0,211.34-139.81,396.66-370.65,481.2v6.49c208.09,52.03,451.94,224.34,451.94,549.48
		c0,188.57-74.78,331.63-185.33,438.94c-152.81,139.8-399.92,204.83-757.56,204.83c-195.08,0-344.64-13-438.93-26.02V6890.04z
		 M10092.87,7787.41h256.85c299.13,0,474.7-156.06,474.7-367.4c0-256.86-195.08-357.65-481.2-357.65
		c-130.05,0-204.84,9.76-250.35,19.51V7787.41z M10092.87,8837.59c55.27,9.76,136.55,13.02,237.35,13.02
		c292.62,0,562.48-107.3,562.48-425.94c0-299.12-256.86-422.67-565.74-422.67h-234.09V8837.59z"/>
</g>
</svg>
