<?xml version="1.0" encoding="utf-8"?>
<!-- Generator: Adobe Illustrator 23.0.1, SVG Export Plug-In . SVG Version: 6.00 Build 0)  -->
<svg version="1.1" id="Layer_1" xmlns="http://www.w3.org/2000/svg" xmlns:xlink="http://www.w3.org/1999/xlink" x="0px" y="0px"
	 viewBox="0 0 16383 16383" style="enable-background:new 0 0 16383 16383;" xml:space="preserve">
<style type="text/css">
	.st0{fill:#FFFFFF;}
</style>
<g>
	<circle cx="8976.45" cy="7599.51" r="4276.76"/>
	<circle class="st0" cx="8976.45" cy="7599.51" r="3984.67"/>
</g>
<g>
	<path d="M7400.07,4994.09c301.4-63.44,777.26-111.03,1261.08-111.03c690.01,0,1134.15,118.97,1467.26,388.63
		c277.6,206.22,444.17,523.48,444.17,943.83c0,515.54-341.05,967.6-904.17,1173.83v15.84
		c507.6,126.91,1102.43,547.26,1102.43,1340.39c0,460-182.41,808.98-452.06,1070.73c-372.77,341.03-975.54,499.66-1847.99,499.66
		c-475.86,0-840.71-31.72-1070.72-63.47V4994.09z M8090.09,7183.11h626.57c729.66,0,1157.95-380.69,1157.95-896.23
		c0-626.57-475.86-872.45-1173.81-872.45c-317.25,0-499.68,23.82-610.71,47.6V7183.11z M8090.09,9744.89
		c134.83,23.82,333.11,31.76,578.97,31.76c713.82,0,1372.11-261.76,1372.11-1039.02c0-729.66-626.57-1031.04-1380.03-1031.04
		h-571.05V9744.89z"/>
</g>
</svg>
